<svg xmlns="http://www.w3.org/2000/svg" xmlns:xlink="http://www.w3.org/1999/xlink" width="49" zoomAndPan="magnify" viewBox="0 0 36.75 36.75" height="49" preserveAspectRatio="xMidYMid meet" version="1.0"><defs><clipPath id="04a9158a11"><path d="M 2 13 L 36.5 13 L 36.5 36.5 L 2 36.5 Z M 2 13 " clip-rule="nonzero"/></clipPath></defs><path fill="#ffffff" d="M 0.25 0 L 8.15625 0 L 8.15625 7.90625 L 0.25 7.90625 Z M 0.25 0 " fill-opacity="1" fill-rule="nonzero"/><g clip-path="url(#04a9158a11)"><path fill="#f7a582" d="M 35.734375 14.046875 C 35.542969 13.925781 35.328125 13.867188 35.117188 13.867188 C 34.78125 13.867188 34.449219 14.015625 34.226562 14.296875 L 33.894531 14.714844 C 33.652344 15.019531 33.285156 15.199219 32.898438 15.199219 C 31.945312 15.199219 31.042969 15.621094 30.433594 16.355469 L 29.542969 17.425781 L 29.546875 17.425781 L 26.175781 21.15625 C 26.117188 21.21875 26.039062 21.257812 25.953125 21.257812 C 25.859375 21.261719 25.78125 21.234375 25.71875 21.171875 L 21.449219 17.15625 C 20.148438 15.933594 18.445312 15.257812 16.65625 15.257812 L 15.988281 15.257812 C 15.957031 15.257812 15.921875 15.261719 15.894531 15.273438 C 15.886719 15.273438 15.882812 15.277344 15.878906 15.277344 C 15.859375 15.285156 15.84375 15.289062 15.828125 15.300781 L 15.433594 15.527344 C 13.96875 16.378906 12.144531 16.382812 10.675781 15.535156 L 10.265625 15.300781 C 10.257812 15.296875 10.25 15.296875 10.242188 15.292969 C 10.214844 15.277344 10.183594 15.269531 10.152344 15.261719 C 10.144531 15.261719 10.140625 15.261719 10.132812 15.261719 C 10.125 15.257812 10.113281 15.257812 10.105469 15.257812 L 9.59375 15.257812 C 7.960938 15.257812 6.351562 15.808594 5.058594 16.808594 C 3.058594 18.359375 2 20.792969 2.226562 23.316406 L 3.3125 35.605469 C 3.359375 36.117188 3.78125 36.5 4.296875 36.5 L 19.460938 36.5 C 19.730469 36.5 19.992188 36.390625 20.175781 36.195312 C 20.363281 35.996094 20.460938 35.738281 20.445312 35.464844 L 20.25 31.527344 C 20.15625 29.699219 20.359375 27.984375 20.851562 26.425781 C 20.882812 26.328125 20.910156 26.226562 20.9375 26.128906 C 20.9375 26.125 20.9375 26.125 20.9375 26.121094 C 20.9375 26.121094 20.9375 26.121094 20.9375 26.117188 C 21.046875 25.714844 21.117188 25.300781 21.15625 24.878906 L 23.890625 26.960938 C 24.476562 27.40625 25.203125 27.652344 25.9375 27.652344 C 27.054688 27.652344 28.097656 27.101562 28.730469 26.179688 L 33.09375 19.785156 L 36.042969 15.664062 C 36.417969 15.136719 36.277344 14.402344 35.734375 14.046875 Z M 32.898438 15.835938 C 33.484375 15.835938 34.03125 15.570312 34.394531 15.109375 L 34.722656 14.691406 C 34.820312 14.570312 34.964844 14.503906 35.117188 14.503906 C 35.214844 14.503906 35.308594 14.53125 35.386719 14.582031 C 35.503906 14.65625 35.582031 14.773438 35.609375 14.910156 C 35.632812 15.042969 35.605469 15.179688 35.523438 15.292969 L 32.800781 19.101562 L 30.464844 17.3125 L 30.925781 16.761719 C 31.414062 16.171875 32.132812 15.835938 32.898438 15.835938 Z M 6.070312 26.304688 C 5.726562 25.039062 5.585938 23.382812 5.652344 21.382812 C 5.65625 21.207031 5.519531 21.0625 5.34375 21.054688 C 5.339844 21.054688 5.335938 21.054688 5.332031 21.054688 C 5.164062 21.054688 5.019531 21.191406 5.015625 21.363281 C 4.949219 23.425781 5.097656 25.144531 5.457031 26.472656 C 5.875 28.011719 6.046875 29.53125 5.972656 30.992188 L 5.726562 35.867188 L 4.296875 35.867188 C 4.113281 35.867188 3.964844 35.726562 3.945312 35.546875 L 2.859375 23.257812 C 2.652344 20.953125 3.621094 18.730469 5.449219 17.3125 C 6.410156 16.566406 7.566406 16.101562 8.765625 15.949219 C 8.425781 16.226562 8.082031 16.601562 7.835938 17.101562 C 7.316406 18.148438 7.359375 19.445312 7.960938 20.949219 C 7.964844 20.957031 7.972656 20.96875 7.980469 20.976562 C 7.574219 21.300781 7.316406 21.792969 7.316406 22.347656 C 7.316406 23.3125 8.101562 24.097656 9.066406 24.097656 C 10.03125 24.097656 10.816406 23.3125 10.816406 22.347656 C 10.816406 21.382812 10.03125 20.597656 9.066406 20.597656 C 8.882812 20.597656 8.707031 20.625 8.539062 20.679688 C 8.023438 19.367188 7.976562 18.261719 8.402344 17.390625 C 8.855469 16.464844 9.738281 16.050781 10.066406 15.925781 L 12.488281 19.847656 C 12.554688 19.953125 12.640625 20.03125 12.738281 20.082031 L 12.738281 35.863281 L 6.363281 35.863281 L 6.609375 31.023438 C 6.6875 29.496094 6.507812 27.910156 6.070312 26.304688 Z M 9.066406 21.234375 C 9.679688 21.234375 10.179688 21.734375 10.179688 22.347656 C 10.179688 22.960938 9.679688 23.460938 9.066406 23.460938 C 8.453125 23.460938 7.953125 22.960938 7.953125 22.347656 C 7.953125 21.734375 8.453125 21.234375 9.066406 21.234375 Z M 28.203125 25.820312 C 27.691406 26.570312 26.84375 27.015625 25.9375 27.015625 C 25.34375 27.015625 24.753906 26.816406 24.277344 26.457031 L 21.175781 24.097656 C 21.273438 22.296875 21 21.335938 20.984375 21.28125 C 20.933594 21.113281 20.753906 21.019531 20.589844 21.066406 C 20.421875 21.117188 20.324219 21.292969 20.375 21.464844 C 20.378906 21.480469 20.820312 23.054688 20.320312 25.960938 C 20.296875 26.050781 20.273438 26.144531 20.246094 26.234375 C 19.726562 27.863281 19.515625 29.65625 19.617188 31.558594 L 19.8125 35.496094 C 19.816406 35.59375 19.78125 35.6875 19.714844 35.757812 C 19.648438 35.828125 19.558594 35.867188 19.460938 35.867188 L 13.375 35.867188 L 13.375 20.085938 C 13.472656 20.03125 13.5625 19.953125 13.625 19.847656 L 16.027344 15.964844 C 16.605469 16.339844 18.304688 17.707031 17.386719 20.515625 C 17.371094 20.5625 17.367188 20.609375 17.375 20.652344 C 17.257812 20.636719 17.136719 20.625 17.015625 20.625 C 15.523438 20.625 14.308594 21.839844 14.308594 23.332031 L 14.308594 24.765625 C 14.308594 24.796875 14.316406 24.824219 14.328125 24.855469 C 14.386719 25.324219 14.78125 25.6875 15.269531 25.6875 C 15.796875 25.6875 16.222656 25.261719 16.222656 24.734375 C 16.222656 24.207031 15.796875 23.78125 15.269531 23.78125 C 15.15625 23.78125 15.046875 23.804688 14.945312 23.839844 L 14.945312 23.332031 C 14.945312 22.191406 15.871094 21.261719 17.015625 21.261719 C 18.15625 21.261719 19.085938 22.191406 19.085938 23.332031 L 19.085938 23.835938 C 18.984375 23.800781 18.878906 23.78125 18.769531 23.78125 C 18.242188 23.78125 17.8125 24.207031 17.8125 24.734375 C 17.8125 25.261719 18.242188 25.6875 18.769531 25.6875 C 19.28125 25.6875 19.695312 25.28125 19.71875 24.773438 C 19.71875 24.769531 19.722656 24.769531 19.722656 24.765625 L 19.722656 24.753906 C 19.722656 24.746094 19.722656 24.742188 19.722656 24.734375 C 19.722656 24.726562 19.722656 24.722656 19.722656 24.714844 L 19.722656 23.332031 C 19.722656 22.167969 18.980469 21.175781 17.949219 20.796875 C 17.964844 20.769531 17.980469 20.742188 17.992188 20.714844 C 18.804688 18.226562 17.78125 16.683594 16.960938 15.90625 C 18.472656 15.980469 19.90625 16.578125 21.015625 17.621094 L 25.285156 21.636719 C 25.472656 21.8125 25.71875 21.90625 25.976562 21.894531 C 26.234375 21.886719 26.472656 21.773438 26.644531 21.582031 L 30.054688 17.8125 L 32.433594 19.625 Z M 28.203125 25.820312 " fill-opacity="1" fill-rule="nonzero"/></g><path fill="#f7a582" d="M 6.867188 13.320312 L 9.128906 13.320312 C 10.15625 14.28125 11.527344 14.871094 13.042969 14.871094 C 14.558594 14.871094 15.933594 14.28125 16.957031 13.320312 L 19.042969 13.320312 C 19.492188 13.320312 19.792969 12.867188 19.632812 12.445312 C 18.949219 10.683594 19.070312 9.214844 19.070312 9.214844 C 19.277344 5.703125 16.484375 2.746094 12.96875 2.746094 C 9.453125 2.746094 6.660156 5.703125 6.867188 9.214844 C 6.867188 9.214844 6.929688 10.664062 6.273438 12.460938 C 6.117188 12.875 6.421875 13.320312 6.867188 13.320312 Z M 13.042969 14.234375 C 11.964844 14.234375 10.960938 13.894531 10.136719 13.320312 C 9.078125 12.582031 8.3125 11.453125 8.050781 10.144531 C 12.128906 9.941406 13.679688 5.980469 13.679688 5.980469 C 15.21875 7.96875 17.511719 8.28125 18.0625 8.328125 C 18.105469 8.59375 18.132812 8.867188 18.132812 9.144531 C 18.132812 10.871094 17.265625 12.398438 15.949219 13.320312 C 15.125 13.894531 14.125 14.234375 13.042969 14.234375 Z M 13.042969 14.234375 " fill-opacity="1" fill-rule="nonzero"/><path fill="#f7a582" d="M 23.859375 11.371094 L 25.769531 11.371094 L 25.769531 13.28125 C 25.769531 13.632812 26.054688 13.917969 26.40625 13.917969 L 28.3125 13.917969 C 28.664062 13.917969 28.949219 13.632812 28.949219 13.28125 L 28.949219 11.371094 L 30.859375 11.371094 C 31.210938 11.371094 31.496094 11.085938 31.496094 10.734375 L 31.496094 8.828125 C 31.496094 8.476562 31.210938 8.191406 30.859375 8.191406 L 28.949219 8.191406 L 28.949219 6.28125 C 28.949219 5.929688 28.664062 5.644531 28.3125 5.644531 L 26.40625 5.644531 C 26.054688 5.644531 25.769531 5.929688 25.769531 6.28125 L 25.769531 8.191406 L 23.859375 8.191406 C 23.507812 8.191406 23.222656 8.476562 23.222656 8.828125 L 23.222656 10.734375 C 23.222656 11.085938 23.507812 11.371094 23.859375 11.371094 Z M 23.859375 11.371094 " fill-opacity="1" fill-rule="nonzero"/></svg>