<svg xmlns="http://www.w3.org/2000/svg" xmlns:xlink="http://www.w3.org/1999/xlink" width="49" zoomAndPan="magnify" viewBox="0 0 36.75 36.75" height="49" preserveAspectRatio="xMidYMid meet" version="1.0"><path fill="#393e46" d="M 23.242188 19.261719 C 23.242188 19.625 22.949219 19.921875 22.582031 19.921875 C 22.21875 19.921875 21.921875 19.625 21.921875 19.261719 C 21.921875 18.898438 22.21875 18.605469 22.582031 18.605469 C 22.949219 18.605469 23.242188 18.898438 23.242188 19.261719 Z M 23.242188 19.261719 " fill-opacity="1" fill-rule="nonzero"/><path fill="#393e46" d="M 25.945312 33.046875 L 10.101562 33.046875 C 9.921875 33.046875 9.773438 33.195312 9.773438 33.375 C 9.773438 33.558594 9.921875 33.703125 10.101562 33.703125 L 25.945312 33.703125 C 26.128906 33.703125 26.277344 33.558594 26.277344 33.375 C 26.277344 33.195312 26.128906 33.046875 25.945312 33.046875 Z M 25.945312 33.046875 " fill-opacity="1" fill-rule="nonzero"/><path fill="#393e46" d="M 26.964844 21.171875 C 26.582031 19.898438 26.082031 19.082031 25.585938 18.554688 C 24.75 17.664062 23.917969 17.59375 23.664062 17.535156 C 23.617188 17.527344 23.570312 17.515625 23.519531 17.507812 C 23.367188 17.363281 23.242188 17.164062 23.148438 16.925781 C 22.910156 16.324219 22.839844 15.476562 22.847656 14.628906 C 22.851562 14.253906 22.867188 13.882812 22.894531 13.53125 C 22.976562 13.523438 23.054688 13.511719 23.132812 13.496094 C 23.792969 13.332031 24.277344 12.773438 24.277344 12.105469 L 24.277344 10.976562 C 24.277344 10.304688 23.792969 9.746094 23.132812 9.585938 L 23.132812 8.074219 C 23.132812 5.425781 20.835938 3.273438 18.011719 3.273438 C 15.183594 3.273438 12.886719 5.425781 12.886719 8.074219 L 12.886719 9.589844 C 12.242188 9.761719 11.769531 10.316406 11.769531 10.976562 L 11.769531 12.105469 C 11.769531 12.761719 12.242188 13.316406 12.886719 13.488281 C 12.972656 13.511719 13.058594 13.523438 13.148438 13.53125 C 13.175781 13.882812 13.195312 14.257812 13.199219 14.628906 C 13.207031 15.476562 13.136719 16.328125 12.898438 16.925781 C 12.800781 17.164062 12.679688 17.367188 12.523438 17.507812 C 12.472656 17.515625 12.425781 17.527344 12.378906 17.539062 C 12.125 17.597656 11.296875 17.667969 10.460938 18.558594 C 9.964844 19.085938 9.464844 19.902344 9.082031 21.171875 C 8.292969 21.273438 7.683594 21.945312 7.683594 22.757812 L 7.683594 22.796875 L 7.6875 22.832031 L 9.140625 31.21875 C 9.160156 32.085938 9.871094 32.78125 10.742188 32.78125 L 25.304688 32.78125 C 26.175781 32.78125 26.886719 32.082031 26.910156 31.21875 L 28.359375 22.832031 L 28.367188 22.796875 L 28.367188 22.757812 C 28.367188 21.945312 27.753906 21.273438 26.964844 21.171875 Z M 14.84375 17.648438 C 14.75 17.527344 14.691406 17.398438 14.675781 17.265625 C 14.695312 17.257812 14.746094 17.242188 14.816406 17.210938 C 14.84375 17.199219 14.871094 17.183594 14.902344 17.167969 C 15.175781 17.027344 15.570312 16.730469 15.570312 16.210938 C 15.996094 16.632812 16.472656 16.964844 16.976562 17.167969 C 17.320312 17.300781 17.675781 17.375 18.039062 17.375 C 18.402344 17.375 18.757812 17.300781 19.097656 17.167969 C 19.601562 16.96875 20.070312 16.640625 20.496094 16.222656 C 20.496094 16.226562 20.5 16.226562 20.503906 16.226562 C 20.503906 16.394531 20.550781 16.539062 20.617188 16.660156 C 20.820312 17.027344 21.230469 17.207031 21.367188 17.257812 C 21.367188 17.257812 21.367188 17.261719 21.367188 17.265625 C 21.351562 17.398438 21.292969 17.527344 21.199219 17.648438 C 20.753906 18.21875 18.019531 20.796875 18.019531 20.796875 C 18.023438 20.796875 15.289062 18.21875 14.84375 17.648438 Z M 22.777344 17.464844 C 22.875 17.675781 22.945312 17.894531 22.980469 18.113281 C 23.046875 18.136719 23.105469 18.160156 23.160156 18.191406 C 23.753906 18.507812 23.976562 19.246094 23.660156 19.835938 C 23.445312 20.234375 23.035156 20.480469 22.582031 20.480469 C 22.382812 20.480469 22.183594 20.433594 22.007812 20.335938 C 21.71875 20.183594 21.507812 19.929688 21.414062 19.617188 C 21.320312 19.304688 21.351562 18.976562 21.507812 18.691406 C 21.660156 18.40625 21.921875 18.195312 22.230469 18.101562 C 22.125 17.679688 21.832031 17.171875 21.320312 17.003906 L 21.203125 16.964844 C 21.191406 16.960938 21.179688 16.960938 21.167969 16.957031 L 21.128906 16.941406 L 21.132812 16.9375 C 21.023438 16.871094 20.949219 16.753906 20.949219 16.621094 C 20.949219 16.417969 21.113281 16.253906 21.3125 16.253906 C 21.328125 16.253906 21.339844 16.257812 21.355469 16.257812 L 21.359375 16.253906 L 21.382812 16.261719 C 21.414062 16.265625 21.441406 16.277344 21.46875 16.289062 L 21.550781 16.316406 C 22.074219 16.488281 22.511719 16.898438 22.777344 17.464844 Z M 18.007812 4.277344 C 19.621094 4.277344 21.015625 5.164062 21.667969 6.445312 C 21.644531 6.417969 21.621094 6.390625 21.59375 6.363281 C 21.570312 6.335938 21.546875 6.3125 21.523438 6.285156 C 21.476562 6.238281 21.433594 6.195312 21.390625 6.148438 C 21.363281 6.125 21.339844 6.101562 21.316406 6.078125 C 21.265625 6.035156 21.21875 5.996094 21.171875 5.957031 C 21.148438 5.9375 21.125 5.917969 21.101562 5.898438 C 21.042969 5.851562 20.984375 5.808594 20.921875 5.765625 C 20.910156 5.757812 20.902344 5.75 20.890625 5.742188 C 20.820312 5.695312 20.75 5.648438 20.675781 5.605469 C 20.65625 5.59375 20.636719 5.582031 20.613281 5.570312 C 20.5625 5.539062 20.511719 5.511719 20.460938 5.488281 C 20.4375 5.472656 20.410156 5.460938 20.382812 5.449219 C 20.335938 5.425781 20.292969 5.402344 20.246094 5.382812 C 20.21875 5.371094 20.195312 5.359375 20.167969 5.351562 C 20.121094 5.332031 20.074219 5.3125 20.03125 5.296875 C 20.007812 5.285156 19.980469 5.277344 19.957031 5.269531 C 19.90625 5.25 19.851562 5.230469 19.796875 5.214844 C 19.785156 5.210938 19.769531 5.207031 19.753906 5.203125 C 19.6875 5.183594 19.621094 5.164062 19.558594 5.148438 C 19.539062 5.144531 19.519531 5.140625 19.5 5.136719 C 19.453125 5.125 19.410156 5.117188 19.371094 5.109375 C 19.34375 5.101562 19.320312 5.097656 19.296875 5.09375 C 19.261719 5.085938 19.222656 5.082031 19.1875 5.074219 C 19.164062 5.070312 19.140625 5.070312 19.117188 5.066406 C 19.085938 5.0625 19.050781 5.058594 19.015625 5.054688 C 18.992188 5.050781 18.972656 5.046875 18.953125 5.046875 C 18.917969 5.042969 18.882812 5.039062 18.847656 5.039062 C 18.832031 5.039062 18.8125 5.035156 18.800781 5.035156 C 18.753906 5.03125 18.710938 5.03125 18.667969 5.027344 C 18.648438 5.027344 18.632812 5.027344 18.613281 5.027344 C 18.589844 5.027344 18.570312 5.027344 18.546875 5.027344 C 18.445312 5.027344 18.363281 5.03125 18.304688 5.035156 C 18.296875 5.035156 18.289062 5.035156 18.285156 5.039062 C 18.261719 5.039062 18.246094 5.039062 18.234375 5.042969 C 18.230469 5.042969 18.222656 5.042969 18.222656 5.042969 C 18.210938 5.042969 18.203125 5.046875 18.203125 5.046875 C 18.140625 5.042969 18.082031 5.039062 18.023438 5.035156 C 17.964844 5.039062 17.90625 5.042969 17.84375 5.042969 C 17.84375 5.042969 17.835938 5.042969 17.824219 5.042969 C 17.820312 5.042969 17.816406 5.042969 17.8125 5.042969 C 17.800781 5.039062 17.785156 5.039062 17.761719 5.039062 C 17.757812 5.039062 17.75 5.039062 17.742188 5.035156 C 17.683594 5.03125 17.601562 5.027344 17.5 5.027344 L 17.433594 5.027344 C 17.414062 5.027344 17.398438 5.027344 17.382812 5.027344 C 17.339844 5.027344 17.296875 5.03125 17.25 5.035156 C 17.234375 5.035156 17.21875 5.035156 17.203125 5.039062 C 17.167969 5.039062 17.132812 5.042969 17.09375 5.046875 C 17.074219 5.046875 17.054688 5.050781 17.035156 5.054688 C 17 5.058594 16.964844 5.0625 16.925781 5.066406 C 16.90625 5.070312 16.882812 5.074219 16.863281 5.074219 C 16.824219 5.082031 16.785156 5.089844 16.746094 5.097656 C 16.722656 5.101562 16.703125 5.101562 16.679688 5.105469 C 16.632812 5.117188 16.585938 5.128906 16.539062 5.136719 C 16.523438 5.140625 16.507812 5.144531 16.488281 5.148438 C 16.421875 5.164062 16.355469 5.183594 16.289062 5.203125 C 16.277344 5.203125 16.269531 5.210938 16.257812 5.210938 C 16.199219 5.230469 16.144531 5.246094 16.085938 5.269531 C 16.066406 5.277344 16.042969 5.285156 16.019531 5.292969 C 15.972656 5.3125 15.925781 5.332031 15.875 5.351562 C 15.851562 5.359375 15.828125 5.371094 15.800781 5.382812 C 15.753906 5.402344 15.707031 5.425781 15.65625 5.449219 C 15.632812 5.460938 15.609375 5.472656 15.585938 5.484375 C 15.53125 5.511719 15.476562 5.542969 15.425781 5.574219 C 15.40625 5.585938 15.386719 5.59375 15.371094 5.605469 C 15.296875 5.648438 15.226562 5.691406 15.152344 5.742188 C 15.144531 5.75 15.136719 5.753906 15.132812 5.757812 C 15.066406 5.804688 15.003906 5.851562 14.941406 5.902344 C 14.917969 5.917969 14.898438 5.9375 14.875 5.953125 C 14.828125 5.996094 14.777344 6.035156 14.730469 6.082031 C 14.707031 6.101562 14.679688 6.125 14.65625 6.148438 C 14.609375 6.191406 14.566406 6.238281 14.519531 6.285156 C 14.496094 6.3125 14.472656 6.335938 14.449219 6.359375 C 14.40625 6.410156 14.359375 6.464844 14.316406 6.519531 C 14.949219 5.199219 16.367188 4.277344 18.007812 4.277344 Z M 13.953125 11.519531 C 13.984375 11.429688 14.027344 11.359375 14.082031 11.320312 C 14.101562 11.304688 14.128906 11.296875 14.152344 11.292969 C 14.210938 11.28125 14.273438 11.304688 14.332031 11.351562 C 14.332031 11.351562 14.332031 11.347656 14.335938 11.339844 C 14.339844 11.277344 14.371094 11.015625 14.460938 10.695312 C 14.460938 10.691406 14.460938 10.6875 14.460938 10.683594 C 14.476562 10.636719 14.488281 10.59375 14.503906 10.546875 C 14.597656 10.25 14.738281 9.917969 14.953125 9.640625 C 14.972656 9.617188 14.992188 9.59375 15.011719 9.570312 C 15.015625 9.5625 15.023438 9.554688 15.027344 9.546875 C 15.324219 9.210938 15.738281 8.980469 16.320312 9.035156 L 21.507812 11.699219 L 21.929688 11.292969 C 21.945312 11.296875 21.960938 11.300781 21.972656 11.304688 C 22.007812 11.324219 22.039062 11.351562 22.0625 11.390625 L 22.0625 12.636719 C 21.988281 12.863281 21.886719 13.042969 21.777344 13.132812 C 21.714844 13.1875 21.648438 13.210938 21.589844 13.199219 C 21.554688 13.195312 21.519531 13.179688 21.492188 13.152344 C 21.398438 13.441406 21.28125 13.730469 21.144531 14.007812 C 20.570312 14.28125 19.871094 14.46875 19.105469 14.535156 C 18.988281 14.351562 18.78125 14.226562 18.546875 14.226562 L 17.65625 14.226562 C 17.285156 14.226562 16.988281 14.527344 16.988281 14.894531 C 16.988281 15.261719 17.285156 15.5625 17.65625 15.5625 L 18.546875 15.5625 C 18.804688 15.5625 19.023438 15.414062 19.136719 15.203125 C 19.652344 15.160156 20.140625 15.074219 20.589844 14.941406 C 20.3125 15.328125 20 15.671875 19.652344 15.9375 C 19.164062 16.3125 18.617188 16.539062 18.039062 16.539062 C 17.460938 16.539062 16.910156 16.308594 16.421875 15.929688 C 15.589844 15.285156 14.933594 14.21875 14.589844 13.152344 C 14.558594 13.175781 14.527344 13.195312 14.492188 13.203125 C 14.421875 13.214844 14.347656 13.179688 14.273438 13.105469 C 14.144531 12.976562 14.023438 12.722656 13.953125 12.417969 Z M 11.1875 19.78125 C 11.378906 19.355469 11.628906 18.992188 11.902344 18.730469 C 12.054688 18.585938 12.214844 18.46875 12.382812 18.382812 C 12.445312 18.238281 12.550781 18.117188 12.679688 18.042969 C 12.75 17.660156 12.964844 17.253906 13.277344 16.921875 C 13.710938 16.460938 14.253906 16.210938 14.808594 16.210938 L 14.917969 16.210938 C 15.109375 16.222656 15.261719 16.378906 15.261719 16.574219 C 15.261719 16.765625 15.109375 16.925781 14.917969 16.933594 L 14.917969 16.9375 L 14.902344 16.9375 C 14.902344 16.9375 14.898438 16.9375 14.894531 16.9375 C 14.894531 16.9375 14.890625 16.9375 14.890625 16.9375 L 14.808594 16.9375 C 14.125 16.9375 13.5625 17.582031 13.417969 18.082031 C 13.515625 18.152344 13.59375 18.25 13.648438 18.363281 C 14.117188 18.585938 14.53125 19.050781 14.851562 19.714844 C 14.902344 19.824219 14.910156 19.953125 14.871094 20.066406 C 15.011719 20.425781 15.105469 20.804688 15.144531 21.15625 L 14.410156 21.15625 C 14.371094 20.886719 14.296875 20.601562 14.191406 20.324219 C 14.105469 20.277344 14.039062 20.207031 14 20.121094 C 13.71875 19.539062 13.339844 19.164062 13.035156 19.164062 C 12.71875 19.164062 12.320312 19.570312 12.042969 20.171875 C 12 20.273438 11.917969 20.351562 11.820312 20.402344 C 11.726562 20.65625 11.664062 20.914062 11.628906 21.15625 L 10.894531 21.15625 C 10.933594 20.8125 11.023438 20.449219 11.160156 20.09375 C 11.128906 19.988281 11.140625 19.878906 11.1875 19.78125 Z M 26.46875 31.179688 C 26.46875 31.820312 25.949219 32.34375 25.304688 32.34375 L 10.742188 32.34375 C 10.101562 32.34375 9.578125 31.820312 9.578125 31.179688 L 8.121094 22.757812 C 8.121094 22.117188 8.644531 21.597656 9.285156 21.597656 L 26.761719 21.597656 C 27.402344 21.597656 27.925781 22.117188 27.925781 22.757812 Z M 26.46875 31.179688 " fill-opacity="1" fill-rule="nonzero"/><path fill="#393e46" d="M 18.023438 26.28125 C 17.644531 26.28125 17.332031 26.589844 17.332031 26.96875 C 17.332031 27.351562 17.644531 27.660156 18.023438 27.660156 C 18.40625 27.660156 18.714844 27.351562 18.714844 26.96875 C 18.714844 26.589844 18.40625 26.28125 18.023438 26.28125 Z M 18.023438 26.28125 " fill-opacity="1" fill-rule="nonzero"/></svg>