<svg xmlns="http://www.w3.org/2000/svg" xmlns:xlink="http://www.w3.org/1999/xlink" width="55" zoomAndPan="magnify" viewBox="0 0 41.25 48.749998" height="65" preserveAspectRatio="xMidYMid meet" version="1.0"><defs><clipPath id="c7637f5553"><path d="M 6 1 L 10.96875 1 L 10.96875 7.417969 L 6 7.417969 Z M 6 1 " clip-rule="nonzero"/></clipPath><clipPath id="33c1a4d6f5"><path d="M 29.523438 1 L 34.40625 1 L 34.40625 7.417969 L 29.523438 7.417969 Z M 29.523438 1 " clip-rule="nonzero"/></clipPath><clipPath id="71025785a4"><path d="M 0.34375 5.464844 L 39.789062 5.464844 L 39.789062 11 L 0.34375 11 Z M 0.34375 5.464844 " clip-rule="nonzero"/></clipPath><clipPath id="c703c199a6"><path d="M 0.34375 11.324219 L 39.789062 11.324219 L 39.789062 38 L 0.34375 38 Z M 0.34375 11.324219 " clip-rule="nonzero"/></clipPath></defs><path fill="#44a996" d="M 26.191406 30.050781 C 27.730469 28.65625 28.695312 26.746094 28.90625 24.683594 C 28.910156 24.589844 28.882812 24.5 28.820312 24.429688 C 28.753906 24.359375 28.660156 24.316406 28.5625 24.316406 C 28.386719 24.316406 28.242188 24.449219 28.222656 24.625 C 27.953125 27.179688 26.433594 29.4375 24.164062 30.648438 C 21.890625 31.855469 19.167969 31.855469 16.894531 30.648438 C 14.625 29.4375 13.105469 27.179688 12.835938 24.625 C 12.816406 24.449219 12.671875 24.316406 12.496094 24.316406 C 12.398438 24.316406 12.304688 24.359375 12.238281 24.429688 C 12.175781 24.5 12.144531 24.589844 12.152344 24.683594 C 12.367188 26.761719 13.34375 28.679688 14.898438 30.074219 C 16.449219 31.472656 18.464844 32.242188 20.550781 32.234375 C 22.636719 32.230469 24.648438 31.449219 26.191406 30.050781 Z M 26.191406 30.050781 " fill-opacity="1" fill-rule="nonzero"/><g clip-path="url(#c7637f5553)"><path fill="#44a996" d="M 10.410156 3.714844 C 10.410156 2.523438 9.398438 1.550781 8.210938 1.550781 C 7.015625 1.550781 6.003906 2.523438 6.003906 3.714844 L 6.003906 7.105469 L 10.410156 7.105469 Z M 10.410156 3.714844 " fill-opacity="1" fill-rule="nonzero"/></g><g clip-path="url(#33c1a4d6f5)"><path fill="#44a996" d="M 34.347656 3.714844 C 34.339844 3.140625 34.109375 2.585938 33.695312 2.183594 C 33.289062 1.773438 32.730469 1.550781 32.15625 1.550781 L 32.074219 1.550781 C 31.507812 1.554688 30.960938 1.78125 30.558594 2.191406 C 30.160156 2.59375 29.9375 3.144531 29.945312 3.714844 L 29.945312 7.105469 L 34.347656 7.105469 Z M 34.347656 3.714844 " fill-opacity="1" fill-rule="nonzero"/></g><path fill="#44a996" d="M 19.503906 23.476562 L 19.503906 25.679688 L 20.847656 25.679688 L 20.847656 23.476562 C 20.847656 23.214844 21.0625 23 21.324219 23 L 23.53125 23 L 23.53125 22.042969 L 21.324219 22.042969 C 21.0625 22.042969 20.847656 21.824219 20.847656 21.5625 L 20.847656 19.167969 L 19.503906 19.167969 L 19.503906 21.5625 C 19.503906 21.6875 19.457031 21.808594 19.367188 21.902344 C 19.277344 21.988281 19.152344 22.042969 19.027344 22.042969 L 16.828125 22.042969 L 16.828125 23 L 19.027344 23 C 19.152344 23 19.277344 23.050781 19.367188 23.136719 C 19.457031 23.230469 19.503906 23.351562 19.503906 23.476562 Z M 19.503906 23.476562 " fill-opacity="1" fill-rule="nonzero"/><path fill="#44a996" d="M 26.304688 15.816406 C 26.304688 16.238281 25.964844 16.578125 25.539062 16.578125 C 25.117188 16.578125 24.773438 16.238281 24.773438 15.816406 C 24.773438 15.394531 25.117188 15.050781 25.539062 15.050781 C 25.964844 15.050781 26.304688 15.394531 26.304688 15.816406 Z M 26.304688 15.816406 " fill-opacity="1" fill-rule="nonzero"/><path fill="#44a996" d="M 25.824219 47.324219 C 27.324219 47.320312 28.761719 46.722656 29.824219 45.664062 C 30.882812 44.597656 31.476562 43.160156 31.476562 41.660156 L 31.476562 35.652344 C 32.113281 35.492188 32.632812 35.027344 32.859375 34.414062 C 33.089844 33.800781 33 33.109375 32.628906 32.570312 C 32.25 32.03125 31.632812 31.710938 30.976562 31.714844 C 30.320312 31.71875 29.710938 32.042969 29.339844 32.585938 C 28.964844 33.132812 28.886719 33.816406 29.121094 34.433594 C 29.359375 35.046875 29.882812 35.503906 30.519531 35.65625 L 30.519531 41.660156 C 30.519531 43.339844 29.625 44.886719 28.171875 45.722656 C 26.722656 46.5625 24.933594 46.5625 23.480469 45.722656 C 22.03125 44.886719 21.132812 43.339844 21.132812 41.660156 L 21.132812 33.4375 L 20.175781 33.4375 L 20.175781 41.660156 C 20.175781 43.160156 20.769531 44.597656 21.828125 45.664062 C 22.886719 46.722656 24.328125 47.320312 25.824219 47.324219 Z M 29.792969 33.722656 C 29.792969 33.238281 30.082031 32.804688 30.535156 32.621094 C 30.980469 32.433594 31.492188 32.535156 31.835938 32.878906 C 32.171875 33.21875 32.277344 33.734375 32.09375 34.179688 C 31.90625 34.628906 31.472656 34.917969 30.988281 34.917969 C 30.328125 34.917969 29.792969 34.382812 29.792969 33.722656 Z M 29.792969 33.722656 " fill-opacity="1" fill-rule="nonzero"/><g clip-path="url(#71025785a4)"><path fill="#44a996" d="M 37.054688 5.957031 L 35.304688 5.957031 L 35.304688 7.546875 C 35.292969 7.820312 35.074219 8.046875 34.796875 8.0625 L 29.429688 8.0625 C 29.167969 8.0625 28.988281 7.808594 28.988281 7.546875 L 28.988281 5.957031 L 11.367188 5.957031 L 11.367188 7.546875 C 11.347656 7.824219 11.125 8.046875 10.84375 8.0625 L 5.558594 8.0625 C 5.28125 8.046875 5.058594 7.820312 5.046875 7.546875 L 5.046875 5.957031 L 3.296875 5.957031 C 2.597656 5.953125 1.925781 6.226562 1.429688 6.71875 C 0.929688 7.210938 0.648438 7.878906 0.644531 8.578125 L 0.644531 10.933594 L 39.710938 10.933594 L 39.710938 8.578125 C 39.703125 7.878906 39.421875 7.210938 38.925781 6.71875 C 38.425781 6.226562 37.757812 5.953125 37.054688 5.957031 Z M 37.054688 5.957031 " fill-opacity="1" fill-rule="nonzero"/></g><path fill="#44a996" d="M 31.492188 33.722656 C 31.492188 33.515625 31.367188 33.332031 31.179688 33.257812 C 30.992188 33.179688 30.773438 33.222656 30.632812 33.367188 C 30.488281 33.511719 30.445312 33.730469 30.523438 33.917969 C 30.601562 34.105469 30.785156 34.226562 30.988281 34.226562 C 31.265625 34.226562 31.492188 34 31.492188 33.722656 Z M 31.492188 33.722656 " fill-opacity="1" fill-rule="nonzero"/><path fill="#44a996" d="M 16.285156 15.816406 C 16.289062 15.503906 16.101562 15.226562 15.816406 15.105469 C 15.53125 14.984375 15.199219 15.050781 14.976562 15.269531 C 14.757812 15.488281 14.691406 15.820312 14.808594 16.105469 C 14.925781 16.394531 15.210938 16.578125 15.519531 16.578125 C 15.941406 16.578125 16.285156 16.238281 16.285156 15.816406 Z M 16.285156 15.816406 " fill-opacity="1" fill-rule="nonzero"/><g clip-path="url(#c703c199a6)"><path fill="#44a996" d="M 0.644531 35.121094 C 0.648438 35.820312 0.929688 36.488281 1.429688 36.980469 C 1.925781 37.46875 2.597656 37.746094 3.296875 37.742188 L 19.605469 37.742188 L 19.605469 33.144531 C 17.453125 32.933594 15.4375 31.984375 13.910156 30.460938 C 12.375 28.933594 11.417969 26.929688 11.191406 24.777344 C 11.15625 24.417969 11.269531 24.058594 11.511719 23.789062 C 11.640625 23.652344 11.84375 23.542969 11.945312 23.46875 L 11.945312 17.601562 C 11.949219 17.0625 12.140625 16.542969 12.484375 16.128906 C 12.832031 15.71875 13.3125 15.4375 13.84375 15.34375 C 13.949219 14.984375 14.171875 14.667969 14.472656 14.445312 C 14.773438 14.214844 15.140625 14.09375 15.519531 14.09375 C 15.941406 14.101562 16.355469 14.261719 16.667969 14.550781 C 16.980469 14.835938 17.175781 15.230469 17.214844 15.65625 C 17.253906 16.078125 17.136719 16.503906 16.878906 16.84375 C 16.628906 17.1875 16.253906 17.417969 15.839844 17.503906 C 15.417969 17.585938 14.988281 17.515625 14.621094 17.296875 C 14.257812 17.078125 13.980469 16.730469 13.855469 16.328125 C 13.582031 16.410156 13.34375 16.578125 13.167969 16.808594 C 12.996094 17.039062 12.90625 17.316406 12.902344 17.601562 L 12.902344 23.433594 C 13.132812 23.515625 13.34375 23.660156 13.496094 23.851562 C 13.652344 24.046875 13.75 24.28125 13.769531 24.527344 C 14.007812 26.769531 15.34375 28.75 17.335938 29.808594 C 19.324219 30.867188 21.714844 30.867188 23.703125 29.808594 C 25.695312 28.75 27.03125 26.769531 27.269531 24.527344 C 27.289062 24.28125 27.382812 24.050781 27.535156 23.855469 C 27.6875 23.660156 27.890625 23.515625 28.125 23.433594 L 28.125 17.601562 C 28.121094 17.316406 28.03125 17.042969 27.863281 16.8125 C 27.695312 16.582031 27.457031 16.410156 27.1875 16.328125 C 27.023438 16.859375 26.613281 17.28125 26.082031 17.457031 C 25.554688 17.632812 24.972656 17.542969 24.519531 17.214844 C 24.070312 16.882812 23.808594 16.359375 23.816406 15.800781 C 23.820312 15.246094 24.09375 14.722656 24.550781 14.40625 C 25.007812 14.085938 25.59375 14.007812 26.117188 14.195312 C 26.640625 14.382812 27.042969 14.808594 27.199219 15.347656 C 27.726562 15.441406 28.203125 15.722656 28.546875 16.132812 C 28.894531 16.546875 29.078125 17.0625 29.082031 17.601562 L 29.082031 23.46875 C 29.253906 23.539062 29.40625 23.648438 29.53125 23.789062 C 29.773438 24.058594 29.890625 24.417969 29.859375 24.777344 C 29.640625 26.882812 28.71875 28.855469 27.238281 30.371094 C 25.757812 31.878906 23.808594 32.847656 21.710938 33.117188 L 21.710938 37.742188 L 29.941406 37.742188 L 29.941406 36.480469 C 29.074219 36.152344 28.410156 35.4375 28.148438 34.542969 C 27.890625 33.652344 28.0625 32.6875 28.617188 31.945312 C 29.175781 31.203125 30.046875 30.761719 30.976562 30.757812 C 31.90625 30.753906 32.785156 31.191406 33.34375 31.929688 C 33.90625 32.671875 34.085938 33.632812 33.832031 34.523438 C 33.578125 35.417969 32.917969 36.136719 32.050781 36.472656 L 32.050781 37.742188 L 37.054688 37.742188 C 37.757812 37.746094 38.429688 37.46875 38.925781 36.980469 C 39.421875 36.488281 39.703125 35.820312 39.710938 35.121094 L 39.710938 11.890625 L 0.644531 11.890625 Z M 18.550781 18.6875 C 18.550781 18.425781 18.765625 18.210938 19.027344 18.210938 L 21.324219 18.210938 C 21.453125 18.210938 21.578125 18.261719 21.664062 18.351562 C 21.753906 18.441406 21.804688 18.5625 21.804688 18.6875 L 21.804688 21.085938 L 24.007812 21.085938 C 24.136719 21.085938 24.253906 21.132812 24.347656 21.222656 C 24.4375 21.3125 24.488281 21.4375 24.488281 21.5625 L 24.488281 23.476562 C 24.488281 23.601562 24.4375 23.726562 24.347656 23.816406 C 24.253906 23.902344 24.136719 23.957031 24.007812 23.957031 L 21.804688 23.957031 L 21.804688 26.160156 C 21.804688 26.285156 21.753906 26.40625 21.664062 26.496094 C 21.578125 26.585938 21.453125 26.636719 21.324219 26.636719 L 19.027344 26.636719 C 18.765625 26.636719 18.550781 26.421875 18.550781 26.160156 L 18.550781 23.957031 L 16.347656 23.957031 C 16.082031 23.957031 15.871094 23.738281 15.871094 23.476562 L 15.871094 21.5625 C 15.871094 21.296875 16.082031 21.085938 16.347656 21.085938 L 18.550781 21.085938 Z M 2.175781 13.804688 C 2.175781 13.542969 2.386719 13.324219 2.65625 13.324219 C 2.917969 13.324219 3.132812 13.542969 3.132812 13.804688 L 3.132812 14.285156 C 3.132812 14.550781 2.917969 14.765625 2.65625 14.765625 C 2.386719 14.765625 2.175781 14.550781 2.175781 14.285156 Z M 2.175781 16.296875 C 2.175781 16.03125 2.386719 15.816406 2.65625 15.816406 C 2.917969 15.816406 3.132812 16.03125 3.132812 16.296875 L 3.132812 27.019531 C 3.132812 27.285156 2.917969 27.496094 2.65625 27.496094 C 2.386719 27.496094 2.175781 27.285156 2.175781 27.019531 Z M 2.175781 16.296875 " fill-opacity="1" fill-rule="nonzero"/></g></svg>