<svg xmlns="http://www.w3.org/2000/svg" xmlns:xlink="http://www.w3.org/1999/xlink" width="55" zoomAndPan="magnify" viewBox="0 0 41.25 48.749998" height="65" preserveAspectRatio="xMidYMid meet" version="1.0"><defs><clipPath id="b6bd390e1d"><path d="M 5 0.3125 L 11 0.3125 L 11 7 L 5 7 Z M 5 0.3125 " clip-rule="nonzero"/></clipPath><clipPath id="0a3ec18881"><path d="M 30 0.3125 L 35 0.3125 L 35 7 L 30 7 Z M 30 0.3125 " clip-rule="nonzero"/></clipPath><clipPath id="05d7b5647e"><path d="M 0.121094 5 L 40.511719 5 L 40.511719 11 L 0.121094 11 Z M 0.121094 5 " clip-rule="nonzero"/></clipPath><clipPath id="0e93746e9f"><path d="M 0.121094 11 L 40.511719 11 L 40.511719 39 L 0.121094 39 Z M 0.121094 11 " clip-rule="nonzero"/></clipPath></defs><path fill="#393e46" d="M 26.589844 30.175781 C 28.164062 28.75 29.152344 26.792969 29.367188 24.679688 C 29.375 24.585938 29.34375 24.492188 29.28125 24.421875 C 29.214844 24.347656 29.117188 24.304688 29.015625 24.304688 C 28.835938 24.304688 28.6875 24.441406 28.667969 24.621094 C 28.394531 27.238281 26.835938 29.550781 24.511719 30.789062 C 22.183594 32.023438 19.398438 32.023438 17.070312 30.789062 C 14.746094 29.550781 13.1875 27.238281 12.914062 24.621094 C 12.894531 24.441406 12.746094 24.304688 12.566406 24.304688 C 12.464844 24.304688 12.367188 24.347656 12.300781 24.421875 C 12.238281 24.492188 12.207031 24.585938 12.214844 24.679688 C 12.433594 26.808594 13.433594 28.773438 15.023438 30.203125 C 16.613281 31.632812 18.675781 32.421875 20.8125 32.414062 C 22.949219 32.410156 25.007812 31.609375 26.589844 30.175781 Z M 26.589844 30.175781 " fill-opacity="1" fill-rule="nonzero"/><g clip-path="url(#b6bd390e1d)"><path fill="#393e46" d="M 10.429688 3.210938 C 10.429688 1.988281 9.394531 0.992188 8.175781 0.992188 C 6.953125 0.992188 5.917969 1.988281 5.917969 3.210938 L 5.917969 6.679688 L 10.429688 6.679688 Z M 10.429688 3.210938 " fill-opacity="1" fill-rule="nonzero"/></g><g clip-path="url(#0a3ec18881)"><path fill="#393e46" d="M 34.941406 3.210938 C 34.933594 2.621094 34.695312 2.054688 34.273438 1.640625 C 33.855469 1.222656 33.285156 0.992188 32.695312 0.992188 L 32.613281 0.992188 C 32.03125 0.996094 31.472656 1.230469 31.0625 1.648438 C 30.652344 2.0625 30.425781 2.625 30.433594 3.210938 L 30.433594 6.679688 L 34.941406 6.679688 Z M 34.941406 3.210938 " fill-opacity="1" fill-rule="nonzero"/></g><path fill="#393e46" d="M 19.742188 23.445312 L 19.742188 25.699219 L 21.117188 25.699219 L 21.117188 23.445312 C 21.117188 23.175781 21.335938 22.957031 21.605469 22.957031 L 23.863281 22.957031 L 23.863281 21.976562 L 21.605469 21.976562 C 21.335938 21.976562 21.117188 21.753906 21.117188 21.484375 L 21.117188 19.035156 L 19.742188 19.035156 L 19.742188 21.484375 C 19.742188 21.613281 19.691406 21.738281 19.601562 21.832031 C 19.507812 21.921875 19.382812 21.976562 19.253906 21.976562 L 17 21.976562 L 17 22.957031 L 19.253906 22.957031 C 19.382812 22.957031 19.507812 23.007812 19.601562 23.097656 C 19.691406 23.191406 19.742188 23.316406 19.742188 23.445312 Z M 19.742188 23.445312 " fill-opacity="1" fill-rule="nonzero"/><path fill="#393e46" d="M 26.707031 15.601562 C 26.707031 16.03125 26.355469 16.382812 25.921875 16.382812 C 25.488281 16.382812 25.136719 16.03125 25.136719 15.601562 C 25.136719 15.167969 25.488281 14.816406 25.921875 14.816406 C 26.355469 14.816406 26.707031 15.167969 26.707031 15.601562 Z M 26.707031 15.601562 " fill-opacity="1" fill-rule="nonzero"/><path fill="#393e46" d="M 26.214844 47.863281 C 27.75 47.859375 29.222656 47.25 30.308594 46.164062 C 31.394531 45.074219 32 43.601562 32 42.066406 L 32 35.914062 C 32.652344 35.75 33.183594 35.273438 33.417969 34.644531 C 33.652344 34.015625 33.5625 33.308594 33.179688 32.757812 C 32.792969 32.207031 32.160156 31.878906 31.488281 31.882812 C 30.816406 31.886719 30.191406 32.21875 29.8125 32.773438 C 29.429688 33.332031 29.347656 34.035156 29.589844 34.664062 C 29.832031 35.292969 30.367188 35.761719 31.019531 35.917969 L 31.019531 42.066406 C 31.019531 43.785156 30.105469 45.371094 28.617188 46.226562 C 27.132812 47.085938 25.300781 47.085938 23.8125 46.226562 C 22.328125 45.371094 21.410156 43.785156 21.410156 42.066406 L 21.410156 33.644531 L 20.429688 33.644531 L 20.429688 42.066406 C 20.429688 43.601562 21.039062 45.074219 22.121094 46.164062 C 23.207031 47.25 24.679688 47.859375 26.214844 47.863281 Z M 30.277344 33.9375 C 30.277344 33.441406 30.574219 32.996094 31.035156 32.808594 C 31.492188 32.617188 32.015625 32.722656 32.367188 33.074219 C 32.714844 33.421875 32.820312 33.949219 32.632812 34.40625 C 32.441406 34.863281 31.996094 35.160156 31.5 35.160156 C 30.824219 35.160156 30.277344 34.613281 30.277344 33.9375 Z M 30.277344 33.9375 " fill-opacity="1" fill-rule="nonzero"/><g clip-path="url(#05d7b5647e)"><path fill="#393e46" d="M 37.714844 5.503906 L 35.921875 5.503906 L 35.921875 7.132812 C 35.910156 7.414062 35.683594 7.644531 35.402344 7.660156 L 29.90625 7.660156 C 29.636719 7.660156 29.453125 7.402344 29.453125 7.132812 L 29.453125 5.503906 L 11.410156 5.503906 L 11.410156 7.132812 C 11.390625 7.417969 11.160156 7.644531 10.875 7.660156 L 5.460938 7.660156 C 5.175781 7.644531 4.949219 7.414062 4.9375 7.132812 L 4.9375 5.503906 L 3.144531 5.503906 C 2.429688 5.5 1.742188 5.78125 1.234375 6.285156 C 0.722656 6.789062 0.433594 7.472656 0.429688 8.1875 L 0.429688 10.601562 L 40.433594 10.601562 L 40.433594 8.1875 C 40.425781 7.472656 40.136719 6.789062 39.628906 6.285156 C 39.117188 5.78125 38.433594 5.5 37.714844 5.503906 Z M 37.714844 5.503906 " fill-opacity="1" fill-rule="nonzero"/></g><path fill="#393e46" d="M 32.015625 33.9375 C 32.015625 33.726562 31.890625 33.539062 31.695312 33.460938 C 31.503906 33.382812 31.28125 33.425781 31.136719 33.574219 C 30.988281 33.722656 30.945312 33.945312 31.023438 34.136719 C 31.105469 34.328125 31.292969 34.453125 31.5 34.453125 C 31.785156 34.453125 32.015625 34.222656 32.015625 33.9375 Z M 32.015625 33.9375 " fill-opacity="1" fill-rule="nonzero"/><path fill="#393e46" d="M 16.445312 15.601562 C 16.449219 15.28125 16.257812 14.996094 15.964844 14.875 C 15.671875 14.75 15.332031 14.816406 15.105469 15.042969 C 14.882812 15.265625 14.8125 15.605469 14.933594 15.898438 C 15.054688 16.191406 15.34375 16.382812 15.660156 16.382812 C 16.09375 16.382812 16.445312 16.035156 16.445312 15.601562 Z M 16.445312 15.601562 " fill-opacity="1" fill-rule="nonzero"/><g clip-path="url(#0e93746e9f)"><path fill="#393e46" d="M 0.429688 35.367188 C 0.433594 36.085938 0.722656 36.769531 1.234375 37.273438 C 1.742188 37.773438 2.429688 38.058594 3.144531 38.054688 L 19.84375 38.054688 L 19.84375 33.34375 C 17.640625 33.128906 15.578125 32.15625 14.011719 30.597656 C 12.441406 29.035156 11.460938 26.980469 11.230469 24.777344 C 11.191406 24.410156 11.308594 24.042969 11.558594 23.765625 C 11.6875 23.625 11.898438 23.511719 12 23.4375 L 12 17.429688 C 12.003906 16.878906 12.199219 16.34375 12.554688 15.921875 C 12.910156 15.5 13.402344 15.214844 13.945312 15.117188 C 14.054688 14.75 14.28125 14.425781 14.589844 14.195312 C 14.898438 13.960938 15.273438 13.835938 15.660156 13.835938 C 16.09375 13.84375 16.515625 14.007812 16.835938 14.304688 C 17.15625 14.597656 17.355469 15 17.398438 15.4375 C 17.4375 15.871094 17.316406 16.304688 17.054688 16.652344 C 16.796875 17.003906 16.414062 17.242188 15.988281 17.328125 C 15.558594 17.414062 15.117188 17.339844 14.742188 17.117188 C 14.367188 16.894531 14.085938 16.539062 13.957031 16.125 C 13.675781 16.210938 13.433594 16.382812 13.253906 16.617188 C 13.078125 16.851562 12.984375 17.136719 12.980469 17.429688 L 12.980469 23.402344 C 13.21875 23.484375 13.433594 23.632812 13.589844 23.828125 C 13.75 24.027344 13.847656 24.269531 13.871094 24.519531 C 14.113281 26.816406 15.480469 28.84375 17.519531 29.929688 C 19.558594 31.011719 22.003906 31.011719 24.042969 29.929688 C 26.082031 28.84375 27.449219 26.816406 27.691406 24.519531 C 27.714844 24.269531 27.808594 24.03125 27.964844 23.832031 C 28.121094 23.632812 28.328125 23.484375 28.570312 23.402344 L 28.570312 17.429688 C 28.566406 17.136719 28.472656 16.855469 28.300781 16.621094 C 28.128906 16.386719 27.886719 16.210938 27.609375 16.125 C 27.441406 16.667969 27.019531 17.101562 26.476562 17.28125 C 25.9375 17.460938 25.339844 17.367188 24.878906 17.03125 C 24.417969 16.691406 24.148438 16.15625 24.15625 15.585938 C 24.160156 15.015625 24.441406 14.480469 24.910156 14.15625 C 25.378906 13.828125 25.976562 13.75 26.511719 13.941406 C 27.050781 14.132812 27.460938 14.570312 27.621094 15.121094 C 28.160156 15.21875 28.648438 15.503906 29 15.925781 C 29.355469 16.347656 29.546875 16.878906 29.550781 17.429688 L 29.550781 23.4375 C 29.726562 23.507812 29.882812 23.621094 30.007812 23.765625 C 30.257812 24.042969 30.378906 24.410156 30.34375 24.777344 C 30.121094 26.933594 29.175781 28.953125 27.660156 30.503906 C 26.144531 32.050781 24.148438 33.042969 22 33.316406 L 22 38.054688 L 30.429688 38.054688 L 30.429688 36.761719 C 29.542969 36.425781 28.859375 35.691406 28.59375 34.777344 C 28.328125 33.863281 28.503906 32.878906 29.074219 32.117188 C 29.644531 31.355469 30.539062 30.90625 31.488281 30.902344 C 32.441406 30.898438 33.339844 31.34375 33.914062 32.101562 C 34.488281 32.859375 34.671875 33.84375 34.414062 34.757812 C 34.152344 35.671875 33.476562 36.410156 32.589844 36.753906 L 32.589844 38.054688 L 37.714844 38.054688 C 38.433594 38.058594 39.121094 37.773438 39.628906 37.273438 C 40.136719 36.769531 40.425781 36.085938 40.433594 35.367188 L 40.433594 11.582031 L 0.429688 11.582031 Z M 18.765625 18.542969 C 18.765625 18.273438 18.984375 18.054688 19.253906 18.054688 L 21.605469 18.054688 C 21.738281 18.054688 21.863281 18.105469 21.953125 18.195312 C 22.046875 18.289062 22.097656 18.414062 22.097656 18.542969 L 22.097656 20.996094 L 24.351562 20.996094 C 24.484375 20.996094 24.605469 21.046875 24.699219 21.136719 C 24.792969 21.230469 24.84375 21.355469 24.84375 21.484375 L 24.84375 23.445312 C 24.84375 23.574219 24.792969 23.699219 24.699219 23.792969 C 24.605469 23.882812 24.484375 23.9375 24.351562 23.9375 L 22.097656 23.9375 L 22.097656 26.191406 C 22.097656 26.320312 22.046875 26.445312 21.953125 26.539062 C 21.863281 26.628906 21.738281 26.679688 21.605469 26.679688 L 19.253906 26.679688 C 18.984375 26.679688 18.765625 26.460938 18.765625 26.191406 L 18.765625 23.9375 L 16.507812 23.9375 C 16.238281 23.9375 16.019531 23.714844 16.019531 23.445312 L 16.019531 21.484375 C 16.019531 21.214844 16.238281 20.996094 16.507812 20.996094 L 18.765625 20.996094 Z M 1.996094 13.542969 C 1.996094 13.273438 2.214844 13.050781 2.488281 13.050781 C 2.757812 13.050781 2.976562 13.273438 2.976562 13.542969 L 2.976562 14.03125 C 2.976562 14.304688 2.757812 14.523438 2.488281 14.523438 C 2.214844 14.523438 1.996094 14.304688 1.996094 14.03125 Z M 1.996094 16.09375 C 1.996094 15.820312 2.214844 15.601562 2.488281 15.601562 C 2.757812 15.601562 2.976562 15.820312 2.976562 16.09375 L 2.976562 27.074219 C 2.976562 27.34375 2.757812 27.5625 2.488281 27.5625 C 2.214844 27.5625 1.996094 27.34375 1.996094 27.074219 Z M 1.996094 16.09375 " fill-opacity="1" fill-rule="nonzero"/></g></svg>